<?xml version="1.0" encoding="UTF-8" standalone="no"?>
<svg
   xmlns:dc="http://purl.org/dc/elements/1.1/"
   xmlns:cc="http://creativecommons.org/ns#"
   xmlns:rdf="http://www.w3.org/1999/02/22-rdf-syntax-ns#"
   xmlns:svg="http://www.w3.org/2000/svg"
   xmlns="http://www.w3.org/2000/svg"
   xmlns:sodipodi="http://sodipodi.sourceforge.net/DTD/sodipodi-0.dtd"
   xmlns:inkscape="http://www.inkscape.org/namespaces/inkscape"
   width="512"
   height="512"
   viewBox="0 0 135.46666 135.46666"
   version="1.1"
   id="svg8"
   inkscape:version="1.0.2 (e86c870879, 2021-01-15)"
   sodipodi:docname="cannonball.svg"
   inkscape:export-filename="/home/mike/programming/go/TowerDefense/img/cannonball/cannonball.png"
   inkscape:export-xdpi="96.000008"
   inkscape:export-ydpi="96.000008">
  <defs
     id="defs2">
    <inkscape:path-effect
       effect="roughen"
       id="path-effect2782"
       is_visible="true"
       lpeversion="1"
       method="size"
       max_segment_size="1"
       segments="2"
       displace_x="0.53;1"
       displace_y="0.52;1"
       global_randomize="1;1217294291"
       handles="along"
       shift_nodes="true"
       fixed_displacement="true"
       spray_tool_friendly="true" />
  </defs>
  <sodipodi:namedview
     id="base"
     pagecolor="#ffffff"
     bordercolor="#666666"
     borderopacity="1.0"
     inkscape:pageopacity="0.0"
     inkscape:pageshadow="2"
     inkscape:zoom="1.4"
     inkscape:cx="203.78856"
     inkscape:cy="288.1894"
     inkscape:document-units="mm"
     inkscape:current-layer="layer1"
     inkscape:document-rotation="0"
     showgrid="false"
     units="px"
     inkscape:pagecheckerboard="true"
     borderlayer="false"
     showborder="true"
     inkscape:window-width="1916"
     inkscape:window-height="1058"
     inkscape:window-x="1920"
     inkscape:window-y="20"
     inkscape:window-maximized="1" />
  <metadata
     id="metadata5">
    <rdf:RDF>
      <cc:Work
         rdf:about="">
        <dc:format>image/svg+xml</dc:format>
        <dc:type
           rdf:resource="http://purl.org/dc/dcmitype/StillImage" />
        <dc:title />
      </cc:Work>
    </rdf:RDF>
  </metadata>
  <g
     inkscape:label="Layer 1"
     inkscape:groupmode="layer"
     id="layer1">
    <path
       id="path2777"
       style="fill:#666666;fill-opacity:1;stroke:#4d4d4d;stroke-width:1.8671"
       d="m 84.271786,67.404304 c 0,0.343726 0.430883,1.075633 0.40916,1.414037 0.314333,0.394156 -0.21958,0.948682 -0.262269,1.275255 -0.196647,0.520602 -0.09074,0.700067 -0.131726,0.930386 -0.06951,0.487867 0.06842,0.702263 0.0109,0.951073 0.100195,0.477331 -0.378161,0.713323 -0.458745,0.986413 -0.314335,0.406121 -0.173453,0.756537 -0.25955,1.000003 -0.102935,0.495095 0.04292,0.592989 -0.05167,0.821624 0.08797,0.432814 -0.519485,0.822503 -0.667726,1.116353 -0.359198,0.421951 -0.430289,0.324219 -0.545051,0.525167 -0.376373,0.193341 -0.373099,0.879544 -0.551346,1.14718 -0.173777,0.519923 -0.07344,0.258845 -0.214646,0.447884 -0.05835,0.206393 -0.878978,0.895063 -1.163273,1.20561 -0.488341,0.374848 -0.356424,0.463731 -0.494796,0.601998 -0.285341,0.374114 -0.560532,0.615149 -0.768127,0.796751 -0.350871,0.394878 -0.591089,0.473282 -0.789185,0.625337 -0.413682,0.306459 -0.588289,0.113115 -0.802524,0.255486 -0.44611,-0.01346 -0.257688,0.2221 -0.542608,0.382396 -0.09212,0.08651 -0.649413,0.852712 -1.072862,1.036026 -0.168855,0.568457 -0.376979,0.478506 -0.720626,0.581262 -0.134824,0.343128 -1.241682,3.53e-4 -1.700549,0.0661 -0.602506,-0.18288 -0.208664,0.05305 -0.418393,0.07858 -0.182359,0.04308 -1.07639,-0.211326 -1.492283,-0.177755 -0.534436,-0.278792 -0.717849,0.196632 -0.965825,0.231426 -0.488932,0.185098 -0.63999,0.321476 -0.894257,0.349981 -0.433715,0.285616 -0.332652,-0.107016 -0.655119,-0.152211 -0.306086,-0.0429 -1.138219,-0.230609 -1.539441,-0.230609 -0.353562,0 -0.354016,0.0084 -0.701523,-0.01198 -0.114528,-0.0085 -0.607075,0.2627 -1.06164,0.199963 -0.147347,0.271192 -0.461339,-0.09176 -0.91602,-0.193679 -0.0186,-0.05229 -0.673479,0.165294 -1.14583,0.01613 -0.161829,0.26082 -1.367629,-0.31955 -1.807382,-0.499943 -0.644702,-0.08636 -0.480024,-0.01924 -0.649324,-0.09531 -0.42198,-0.0032 -0.86879,-0.330951 -1.145003,-0.474522 -0.510054,-0.174435 -0.640433,-0.232524 -0.840817,-0.347868 -0.460154,-0.145956 -0.227051,-0.402638 -0.447563,-0.544773 -0.08258,-0.333123 -0.246387,-0.447306 -0.540473,-0.664957 0.03591,-0.282573 -0.815679,-0.123163 -1.128695,-0.387649 -0.443201,0.139815 -0.335258,-0.775178 -0.597481,-1.029361 -0.0015,-0.503294 -0.150824,-0.540467 -0.355794,-0.757607 0.03689,-0.370585 -0.26505,-0.784148 -0.491355,-1.044788 0.01579,-0.493767 -0.507845,-0.182617 -0.688933,-0.401802 -0.355915,-0.01559 -0.308563,-0.214394 -0.514965,-0.489985 -0.124768,-0.01045 -0.344294,-0.282516 -0.57507,-0.637604 -0.09257,0.02833 -0.132684,-1.046716 -0.352469,-1.447803 0.199602,-0.542804 -0.263902,-0.212615 -0.397525,-0.46359 -0.176231,-0.06013 0.02692,-0.770145 -0.146031,-1.133196 0.238102,-0.390032 0.01825,-0.497554 -0.139503,-0.821813 0.151501,-0.220236 -0.55256,-1.109345 -0.746436,-1.487837 -0.265547,-0.537037 -0.0073,-0.402394 -0.08338,-0.554959 0.0061,-0.383458 -0.482275,-0.319355 -0.616958,-0.585157 -0.341423,-0.05499 0.05947,-0.480598 0.01101,-0.857037 -0.04448,-0.345563 -0.127099,-1.179118 -0.127099,-1.500626 0,-0.343726 -0.312673,-0.576637 -0.291617,-0.914241 -0.299129,-0.280457 -0.149607,-0.450299 -0.09707,-0.830181 -0.148978,-0.136647 0.343688,-1.330152 0.448223,-1.777429 0.236979,-0.594154 0.263159,-0.31744 0.31041,-0.49159 0.262431,-0.278103 0.451803,-0.793454 0.554696,-1.097811 0.349191,-0.397592 -0.07682,-0.409466 0.0084,-0.629791 -0.102369,-0.300765 0.383929,-0.327726 0.537667,-0.654733 0.281433,-0.01979 0.259391,-1.115976 0.457007,-1.467339 0.01107,-0.584586 0.0027,-0.416689 0.119085,-0.604008 -0.03163,-0.334031 0.07121,-0.756881 0.279206,-1.041938 -0.106254,-0.446994 0.522175,-0.221058 0.751959,-0.487379 0.348751,0.04528 0.742479,-0.260305 1.019296,-0.535545 0.461536,0.08127 0.436351,-0.798233 0.687155,-1.023395 0.146028,-0.503162 0.592712,-0.188635 0.791007,-0.350471 0.435453,-0.03702 0.661833,-0.154657 0.897003,-0.329699 0.445509,0.03096 0.667295,-0.114674 0.914997,-0.285996 0.436322,0.06456 0.699176,-0.600318 0.958471,-0.770598 0.370417,-0.370294 0.309287,-0.449702 0.494048,-0.563926 0.196746,-0.369277 0.574199,-0.599558 0.834023,-0.73903 0.296068,-0.41879 0.365194,-0.482546 0.603896,-0.586757 0.214063,-0.381401 0.37355,-0.464928 0.709081,-0.556253 0.130036,-0.321731 1.269645,-0.06539 1.726863,-0.09916 0.627811,0.0943 0.244733,-0.150383 0.436349,-0.159663 0.235009,-0.142442 1.080992,-0.268029 1.484916,-0.249111 0.599076,-0.244611 0.45578,0.340972 0.701305,0.416339 0.292692,0.08985 0.48216,-0.256694 0.879975,-0.256694 0.353562,0 0.775627,-0.333129 1.124266,-0.311482 0.410286,-0.323041 0.773949,-0.271104 1.10792,-0.229126 0.436915,-0.281233 0.936518,0.314878 1.269199,0.379431 0.507529,0.26625 0.298716,0.26141 0.540775,0.320448 0.194294,0.254317 1.050217,-0.07512 1.425544,0.04583 0.557611,-0.18865 0.322151,0.365142 0.589813,0.46843 0.14325,0.322253 0.906426,-0.05362 1.260804,0.113508 0.492812,-0.201619 0.28518,0.231258 0.588131,0.400948 0.06247,0.148156 1.255669,0.471639 1.638375,0.732199 0.639373,0.12442 0.567457,0.230582 0.739656,0.358984 0.451465,0.161342 0.675501,0.150865 0.900213,0.340841 0.47754,0.01882 0.521188,0.819377 0.771299,1.067505 0.178217,0.538095 0.442509,0.123374 0.618515,0.317106 0.345055,0.04647 0.201229,0.373545 0.445197,0.694134 -0.04102,0.141266 0.318546,1.183485 0.576346,1.592797 -0.104658,0.628363 0.24392,0.684923 0.373373,0.903963 0.107962,0.476265 0.267374,0.705108 0.392843,0.929623 0.129819,0.478613 0.124347,0.219769 0.24063,0.438537 0.07341,0.141443 0.617664,0.395704 0.793268,0.764369 0.410114,0.02541 0.04721,0.437091 0.185666,0.816912 -0.128507,0.116847 0.08664,0.434647 0.220819,0.882083 -0.07765,0.02198 0.05918,0.45814 0.186189,0.945054 -0.08956,-0.005 -0.09292,1.272297 0.02873,1.775081 -0.266678,0.62679 0.366929,0.368271 0.457255,0.605538 0.343559,0.180467 -0.126998,0.622823 -0.06905,0.950669 0.06394,0.361725 0.32662,0.4295 0.32662,0.735021 z"
       inkscape:path-effect="#path-effect2782"
       inkscape:original-d="M 84.378016,67.73333 A 16.644686,16.181646 0 0 1 67.73333,83.914976 16.644686,16.181646 0 0 1 51.088644,67.73333 16.644686,16.181646 0 0 1 67.73333,51.551683 16.644686,16.181646 0 0 1 84.378016,67.73333 Z" />
  </g>
</svg>
