<?xml version="1.0" encoding="UTF-8" standalone="no"?>
<svg
   xmlns:dc="http://purl.org/dc/elements/1.1/"
   xmlns:cc="http://creativecommons.org/ns#"
   xmlns:rdf="http://www.w3.org/1999/02/22-rdf-syntax-ns#"
   xmlns:svg="http://www.w3.org/2000/svg"
   xmlns="http://www.w3.org/2000/svg"
   xmlns:sodipodi="http://sodipodi.sourceforge.net/DTD/sodipodi-0.dtd"
   xmlns:inkscape="http://www.inkscape.org/namespaces/inkscape"
   width="512"
   height="512"
   viewBox="0 0 135.46666 135.46666"
   version="1.1"
   id="svg8"
   inkscape:version="1.0.2 (e86c870879, 2021-01-15)"
   sodipodi:docname="particle.svg">
  <defs
     id="defs2">
    <inkscape:path-effect
       effect="roughen"
       id="path-effect845"
       is_visible="true"
       lpeversion="1"
       method="size"
       max_segment_size="15.32"
       segments="2"
       displace_x="10;1"
       displace_y="10;1"
       global_randomize="1;1"
       handles="along"
       shift_nodes="true"
       fixed_displacement="true"
       spray_tool_friendly="true" />
  </defs>
  <sodipodi:namedview
     id="base"
     pagecolor="#ffffff"
     bordercolor="#666666"
     borderopacity="1.0"
     inkscape:pageopacity="0.0"
     inkscape:pageshadow="2"
     inkscape:zoom="0.98994949"
     inkscape:cx="88.356757"
     inkscape:cy="192.34819"
     inkscape:document-units="mm"
     inkscape:current-layer="layer1"
     inkscape:document-rotation="0"
     showgrid="false"
     units="px"
     inkscape:pagecheckerboard="true"
     borderlayer="false"
     showborder="true"
     inkscape:window-width="1916"
     inkscape:window-height="1058"
     inkscape:window-x="0"
     inkscape:window-y="20"
     inkscape:window-maximized="1" />
  <metadata
     id="metadata5">
    <rdf:RDF>
      <cc:Work
         rdf:about="">
        <dc:format>image/svg+xml</dc:format>
        <dc:type
           rdf:resource="http://purl.org/dc/dcmitype/StillImage" />
        <dc:title></dc:title>
      </cc:Work>
    </rdf:RDF>
  </metadata>
  <g
     inkscape:label="Layer 1"
     inkscape:groupmode="layer"
     id="layer1">
    <path
       id="path842"
       style="fill:#ffffff;stroke-width:2.52342"
       d="m 133.39118,72.448257 c 0,4.887899 0.48747,5.382643 -0.58267,9.944142 3.52791,5.687729 -8.45345,10.345788 -11.12841,14.879192 -7.06012,3.420419 -6.49181,8.394579 -8.67013,11.132749 -4.81334,5.07444 -2.28012,7.71735 -4.61854,9.89318 -1.54104,5.96152 -12.551355,7.00051 -17.16927,8.70159 -8.105809,2.42869 -6.481692,5.02904 -9.365464,5.37382 -4.071582,0.48681 -4.877203,-2.68563 -10.974024,-2.68562 -4.887899,0 -13.611922,2.26486 -18.282783,1.19166 -7.858708,1.92419 -9.644055,-5.72457 -13.203014,-7.41639 -5.412824,-5.14936 -9.391462,-0.92259 -12.368934,-3.08261 -6.901966,-0.41935 -3.455654,-9.62998 -6.317231,-13.90593 C 22.435988,99.840282 11.49465,100.916 9.2578482,96.7906 2.8256944,94.715496 3.0045132,91.373685 2.7413816,85.969473 2.5128684,81.276255 5.133292,77.393324 5.1332917,72.68167 c 0,-4.887899 -0.7506619,-5.07187 0.3429626,-9.809482 C 5.5541502,61.445773 3.5093722,47.668726 6.5775309,41.825353 3.3058546,34.219631 15.826413,29.095117 19.518778,25.177156 c 5.960898,-6.236887 7.045004,-2.392088 9.527404,-4.320294 6.152145,-0.733166 12.154243,-5.38882 16.004504,-7.564567 8.016674,-1.777564 3.244449,-5.2678553 5.965868,-6.5137704 3.900778,-1.7858467 11.392455,-4.374321 17.42254,-4.374321 4.887898,4e-7 6.532992,-2.98331709 11.070618,-1.79802537 2.758662,-2.08705403 5.579089,5.73275267 10.854831,9.18893757 -1.309681,4.6172572 3.588163,7.5596292 8.019655,11.5759682 -1.688995,4.590104 13.044232,4.41369 17.120922,8.567963 7.71664,-0.110819 3.02548,3.0622 5.00962,6.721588 0.14764,1.314272 5.32587,16.881733 7.06139,22.878745 1.47413,5.093776 5.81505,8.86854 5.81505,12.908877 z"
       inkscape:path-effect="#path-effect845"
       inkscape:original-d="M 129.70901,67.647803 A 61.952271,61.952271 0 0 1 67.756745,129.60007 61.952271,61.952271 0 0 1 5.8044739,67.647803 61.952271,61.952271 0 0 1 67.756745,5.6955323 61.952271,61.952271 0 0 1 129.70901,67.647803 Z" />
  </g>
</svg>
