P1
# Created by GIMP version 2.10.22 PNM plug-in
30 20
0100000000000000000000000000000100000111111000000000000000000100001100
0011000000000111000001000010000001000000111101000001000010000001000001
1000010000010000100000010000110000010000010001100000010000100000010000
0100010000000100001000000100000100010000000100001000000100000100010000
0001000010000001000001000100000001000010000001100001100110000011000010
0000001000001000100001100000100000001000001000100011000001100000001000
0010001000100000010000000010000010001000110000010000000011000010001000
0100001100000000010000100110000110011000000000010000111100000011110000
0000000110000000000000000000000000000011
